<svg width="34" height="34" viewBox="0 0 34 34" fill="none" xmlns="http://www.w3.org/2000/svg">
<path d="M16.9998 32.8659C20.126 32.8659 22.6603 31.6968 22.6603 30.2548C22.6603 28.8127 20.126 27.6437 16.9998 27.6437C13.8736 27.6437 11.3394 28.8127 11.3394 30.2548C11.3394 31.6968 13.8736 32.8659 16.9998 32.8659Z" fill="#D44A28"/>
<path d="M26.4373 22.9633C26.4373 26.8892 22.2112 31.1604 16.9997 31.1604C11.7881 31.1604 7.56201 26.8892 7.56201 22.9633C7.56201 19.0373 26.4373 19.0373 26.4373 22.9633Z" fill="#ED603A"/>
<path d="M16.9999 25.0671C22.1535 25.0671 26.3313 23.8398 26.3313 22.3258C26.3313 20.8119 22.1535 19.5846 16.9999 19.5846C11.8463 19.5846 7.66846 20.8119 7.66846 22.3258C7.66846 23.8398 11.8463 25.0671 16.9999 25.0671Z" fill="#FF8A65"/>
<path d="M24.8918 22.1399C24.8918 23.0085 21.9328 23.9701 17.0001 23.9701C12.1471 23.9701 9.1084 23.0085 9.1084 22.1399C9.1084 21.2713 12.6412 20.238 17.0001 20.238C21.359 20.238 24.8918 21.274 24.8918 22.1399Z" fill="#5D4037"/>
<path opacity="0.18" d="M26.3204 22.448C26.3258 22.4082 26.3311 22.3657 26.3311 22.3258C26.3311 20.8118 22.1528 19.5846 16.9997 19.5846C11.8465 19.5846 7.66826 20.8118 7.66826 22.3258C7.66826 22.3657 7.67357 22.4082 7.67889 22.448C7.60186 22.6127 7.56201 22.7854 7.56201 22.9633C7.56201 24.7669 8.39342 26.459 9.63654 27.8376C9.81451 28.0341 12.1706 27.4763 13.6873 26.5758C16.5959 24.8519 18.9148 23.9143 18.9148 23.9143C18.9148 23.9143 17.8178 23.9647 16.997 23.9647C12.144 23.9647 9.10529 23.0032 9.10529 22.1346C9.10529 21.266 12.6381 20.2327 16.997 20.2327C21.3559 20.2327 24.8887 21.266 24.8887 22.1346C24.8887 22.7508 23.3933 23.4149 20.7609 23.7469C21.0053 23.7443 21.3931 23.7788 21.8606 23.9647C23.287 24.5279 25.2048 26.9424 25.7201 25.8401C26.169 24.8758 26.4347 24.0657 26.4347 22.958C26.4373 22.7827 26.3948 22.6101 26.3204 22.448Z" fill="#212121"/>
<path d="M22.7352 12.4126C22.7458 12.3356 22.7909 11.9504 22.1986 11.8388C21.6063 11.7273 21.1334 11.7724 21.1334 11.7724L20.7961 10.8135C21.0538 9.94228 21.4814 9.53587 21.1175 8.63806C21.0325 8.43087 20.5783 8.30869 20.2038 8.41494C20.2038 8.41494 19.8319 8.40431 19.5105 8.63009C19.2342 8.82666 18.0708 9.80947 17.8716 9.23306C17.7892 8.994 17.9088 8.85056 18.4161 8.48666C18.8703 8.16259 19.375 7.889 19.7734 7.49587C20.4561 6.81853 20.0258 5.86759 20.0258 5.86759C20.0258 5.86759 19.4839 5.66306 19.0509 5.99244C18.7216 6.24212 18.4639 6.38556 18.3098 6.48916C17.5581 6.99384 17.5103 6.26072 17.9884 5.9765L18.8756 5.37884C19.7894 4.744 19.3803 3.71869 19.3803 3.71869C19.3803 3.71869 19.1173 3.63634 18.772 3.87275C18.6498 3.95775 18.5197 4.07197 18.3284 4.16494C18.0469 4.30041 17.8556 4.37212 17.7467 4.17822C17.6723 4.0454 17.8078 3.88337 18.0681 3.69744C18.3656 3.48759 18.5277 3.45306 18.7348 3.15822C19.0563 2.704 18.9713 2.13025 18.8863 2.00806C18.8039 1.88853 18.1638 2.59509 18.0469 2.32416C17.9566 2.11431 18.2434 1.73181 17.938 1.18994C17.7095 0.786187 17.2819 0.602905 17.2819 0.602905C16.9552 1.03853 16.9153 1.77431 17.1889 2.25244C17.3563 2.54462 17.5475 2.80759 17.3748 2.96697C17.2527 3.07853 17.0959 2.92447 16.8409 2.75712C16.4558 2.50744 15.9484 2.704 15.9484 2.704C15.9484 2.704 15.7227 3.35744 16.0706 3.79041C16.323 4.1065 16.5275 4.22603 16.918 4.55541C17.335 4.90603 17.088 5.30447 16.5939 5.0415C16.4213 4.94853 16.1795 4.75728 15.9113 4.64041C15.5128 4.46509 14.9391 4.73337 14.9391 4.73337C14.9391 4.73337 14.7239 5.71353 15.2711 6.0615C15.457 6.18103 16.2327 6.699 16.4956 6.83447C17.0402 7.11603 16.91 7.804 16.2991 7.51447C15.8634 7.30728 15.3986 6.95931 14.9178 6.74947C14.2803 6.47056 13.8527 6.76806 13.8527 6.76806C13.8527 6.76806 13.6614 7.62337 14.1528 8.1015C14.4769 8.41759 15.2631 8.93291 15.5739 9.11884C15.8741 9.29681 16.3416 9.49337 16.2353 9.71384C15.9458 10.3195 15.0134 9.87587 14.5964 9.63947C13.858 9.21978 13.0797 8.92228 12.6414 9.26494C12.2005 9.61025 12.5219 10.6621 12.5059 11.1243C12.4688 12.1496 13.3347 12.1921 13.6375 13.0501C13.6959 13.2174 13.6827 13.4034 13.672 13.5813C13.6003 14.7527 13.6959 15.9374 13.9509 17.0823C13.9802 17.2124 14.0173 17.3532 14.1183 17.4382C14.2166 17.5232 14.3573 17.5392 14.4875 17.5498C15.8183 17.6667 17.157 17.7251 18.4931 17.7251C19.5025 17.7251 20.5358 17.6852 21.4681 17.3001C21.6381 17.2284 21.8161 17.1381 21.9091 16.9787C21.9914 16.8406 21.338 15.0343 21.4416 14.9121C22.0499 14.1923 22.6156 13.2174 22.7352 12.4126Z" fill="url(#paint0_linear_57_268)"/>
<path d="M32.1408 10.4949C31.9841 10.4763 31.8778 10.5055 31.9548 10.3355C32.0505 10.1203 32.0744 10.0433 32.1116 9.89455C32.2019 9.51736 32.0584 9.26501 32.0584 9.26501C32.0584 9.26501 31.5484 9.32345 31.3147 9.79626C31.1925 10.0433 31.0172 10.6489 30.7223 10.4364C30.6001 10.3461 30.7091 10.1974 30.725 9.95298C30.7622 9.43501 30.3558 9.33142 30.3558 9.33142C30.3558 9.33142 29.8537 9.47751 29.7209 9.93705C29.6094 10.3275 29.5828 10.54 29.5217 10.8986C29.4633 11.2439 29.5031 11.4139 29.2561 11.4777C29.0436 11.5335 28.9214 11.3714 28.948 11.1111C28.9825 10.7392 28.9851 10.4178 28.9851 10.4178C29.0622 9.84142 28.4725 9.74845 28.4725 9.74845C28.4725 9.74845 27.8562 9.80158 27.6916 10.4842C27.6012 10.8641 27.5773 11.0181 27.495 11.5308C27.4551 11.7752 27.4525 12.086 27.24 12.2719C27.0142 12.4685 26.7512 12.2931 26.7592 11.8681C26.7645 11.5547 26.7991 11.3608 26.7778 10.8986C26.7566 10.4364 26.2598 10.4072 26.2598 10.4072C26.2598 10.4072 25.4922 10.7366 25.463 11.5281C25.4417 12.0806 25.4284 12.9864 25.4444 13.2441C25.4444 13.2441 25.5214 13.7222 25.1469 13.8683C24.9184 13.9533 24.6555 13.8099 24.6422 13.3928C24.6236 12.8377 24.6395 12.7819 24.6076 12.078C24.5784 11.4192 24.0419 11.2306 24.0419 11.2306C24.0419 11.2306 23.2264 11.321 23.0697 12.1072C22.9767 12.5667 22.9847 14.5775 22.3206 14.5563C21.5503 14.5297 19.9937 12.843 19.4625 14.7581C19.3722 15.0795 19.1836 15.3744 18.9126 15.5683C18.5594 15.826 18.1131 15.9056 17.6908 16.0252C16.2962 16.4183 15.0823 17.3374 14.2483 18.5114C13.8073 19.133 12.3703 21.7919 13.2123 22.4081C13.5125 22.6286 14.498 22.5489 14.9044 22.5489C15.8048 22.5516 16.7026 22.5542 17.6031 22.5542C18.9153 22.5569 20.2248 22.5595 21.537 22.5649C21.5848 22.2886 21.5955 22.0203 21.5795 21.7574L21.9328 21.76L24.4775 21.8583C24.4775 21.8583 24.9955 20.8755 25.4709 20.663C25.5347 20.6338 26.467 19.9458 26.4378 19.882C26.0659 19.0586 23.9781 18.2697 23.9781 18.2697C24.3155 18.2431 24.8095 17.8606 25.7126 18.3494C26.7884 18.9311 27.4472 18.6655 27.4472 18.6655C27.4472 18.6655 27.6862 18.3069 26.985 17.4117C26.6184 16.9416 25.0008 16.1128 25.0008 16.1128C24.8255 15.9933 24.3606 15.8738 24.5784 15.5311C24.7272 15.2947 25.3541 15.4992 25.9039 15.7994C26.3687 16.0544 26.2891 16.0836 27.3303 16.66C27.9784 17.0186 28.8736 16.66 28.8736 16.66C28.8736 16.66 28.9214 15.8499 28.3556 15.3345C27.8775 14.8989 26.7778 14.2402 26.7778 14.2402C26.5228 14.0224 26.483 13.847 26.6901 13.7328C26.9903 13.5708 27.3516 13.7966 27.6916 13.9692C28.0316 14.1419 28.9639 14.5988 28.9639 14.5988C29.4898 14.8856 30.3 14.7953 30.3 14.7953C30.3 14.7953 30.4806 14.1472 30.223 13.8391C29.8511 13.3928 28.7806 12.9174 28.7806 12.9174C28.5123 12.7208 28.4433 12.6013 28.5947 12.4392C28.7461 12.2799 28.8842 12.2825 29.3331 12.4924C29.8059 12.7155 30.1725 12.8961 30.5975 13.0342C31.0225 13.1724 31.8034 12.9094 31.8034 12.9094C31.8034 12.9094 31.7795 12.3064 31.3811 12.0408C31.073 11.8363 30.7011 11.6875 30.7011 11.6875C30.4939 11.6158 30.3319 11.4511 30.4355 11.2572C30.5576 11.0341 31.0305 11.2253 31.3306 11.2838C31.7689 11.3688 32.008 11.39 32.4622 11.2253C32.7597 11.1164 32.927 10.811 32.927 10.811C32.927 10.811 32.8898 10.5878 32.1408 10.4949Z" fill="url(#paint1_radial_57_268)"/>
<path d="M21.9779 16.4821C21.5821 16.1421 21.0456 15.9588 20.5249 16.0172C20.2646 16.0464 20.0043 16.1288 19.7413 16.1075C19.4784 16.0836 19.1995 15.9057 19.1862 15.6427C19.1782 15.47 19.2818 15.316 19.3721 15.1699C19.6085 14.7874 19.7812 14.3305 19.6749 13.8949C19.5687 13.4592 19.0879 13.1007 18.6682 13.26C18.2698 13.4114 18.1396 13.8975 18.0041 14.3013C17.8209 14.8511 17.5313 15.3664 17.1595 15.8127C16.9974 16.0066 16.7584 16.2058 16.5166 16.1288C16.1687 16.0225 16.8832 14.0436 16.1235 12.418C15.8951 11.9319 15.7038 11.491 15.5179 11.491C15.1965 11.491 15.0902 12.5827 14.9999 12.9785C14.9202 13.3317 14.7396 14.0091 14.397 14.0569C14.1685 14.0888 13.8896 13.7222 13.8179 13.5788C13.5788 13.106 13.1246 11.9213 12.6146 11.6503C12.2241 11.4458 11.762 11.7247 11.762 12.3782C11.762 12.5986 12.2348 14.0622 12.5376 14.875C12.6332 15.1327 12.1232 15.3213 11.8709 14.8405C11.8709 14.8405 11.0926 13.5416 10.7871 13.1033C10.3302 12.4446 9.50149 12.5641 9.50149 12.5641C9.50149 12.5641 9.1668 13.1086 9.44571 13.9028C9.6768 14.5669 9.6529 14.3916 9.85477 14.9096C10.0088 15.3 9.8229 15.5338 9.58118 15.5471C9.18008 15.5603 9.06055 15.0928 9.06055 15.0928C8.9729 14.8511 8.60102 14.025 8.36196 13.5283C8.0193 12.8138 7.18524 12.8164 7.18524 12.8164C7.18524 12.8164 6.73899 13.0396 6.90368 13.4725C7.06837 13.9055 7.17727 14.0702 7.30743 14.3544C7.4854 14.7422 7.31274 15.0078 7.02852 14.9175C6.7629 14.8325 6.6354 14.5483 6.49993 14.3385C6.22102 13.9002 6.13868 13.77 5.90227 13.4592C5.48258 12.8988 4.8929 13.0927 4.8929 13.0927C4.8929 13.0927 4.38821 13.4141 4.68837 13.9108C4.68837 13.9108 4.81852 14.203 4.99915 14.5324C5.12399 14.7608 5.07883 14.9574 4.86102 14.9919C4.60868 15.0317 4.57946 14.8591 4.38821 14.5669C4.18899 14.2641 4.08008 14.0782 3.82243 13.7647C3.51696 13.3955 2.99899 13.4619 2.99899 13.4619C2.99899 13.4619 2.66962 13.7169 2.90868 14.1791C3.02024 14.3969 3.18227 14.4899 3.10524 14.62C2.92196 14.9335 2.51821 14.4474 2.30837 14.2694C1.90462 13.9294 1.41321 14.0782 1.41321 14.0782C1.41321 14.0782 1.38133 14.3703 1.61508 14.6785C1.70805 14.8007 1.76118 14.8617 1.93383 15.0211C2.07196 15.1486 1.96305 15.1619 1.82758 15.2416C1.1768 15.6241 1.23524 15.8419 1.23524 15.8419C1.23524 15.8419 1.50883 16.0544 1.82493 16.0385C2.30837 16.0119 2.51821 15.895 2.88743 15.6427C3.13977 15.47 3.49837 15.1035 3.69758 15.2628C3.87024 15.3983 3.7879 15.6161 3.62587 15.7649C3.62587 15.7649 3.3443 16.0491 3.14243 16.3599C2.88212 16.761 3.09993 17.3241 3.09993 17.3241C3.09993 17.3241 3.92337 17.2497 4.2554 16.9575C4.59008 16.6627 4.85305 16.3492 5.19837 15.9588C5.52774 15.5869 5.65258 15.5285 5.85446 15.6161C6.05633 15.7011 6.0404 15.8392 5.87305 16.1288C5.87305 16.1288 5.07883 16.9921 4.91415 17.5499C4.79993 17.935 5.22493 18.4583 5.22493 18.4583C5.22493 18.4583 6.00321 18.2192 6.37243 17.7464C6.37243 17.7464 7.04712 16.9549 7.28883 16.6627C7.53321 16.3705 7.77493 16.0172 8.11493 16.0491C8.34868 16.0703 8.38321 16.2483 8.23712 16.5485C8.23712 16.5485 7.49071 17.5897 7.22508 18.1794C6.91165 18.8753 7.27555 19.6005 7.27555 19.6005C7.27555 19.6005 8.24243 19.5713 8.69133 18.9869C9.41649 18.0413 9.33149 18.0466 9.65821 17.6296C10.0434 17.1355 10.5374 16.6972 10.7659 16.8539C11.1032 17.085 10.7234 17.3772 10.6091 17.5578C10.6091 17.5578 9.51477 18.9816 9.30493 19.5394C8.99415 20.3602 9.33946 21.25 9.33946 21.25C9.33946 21.25 10.2957 21.1703 11.0527 20.2725C11.1856 20.1158 11.2998 19.975 11.406 19.8475L12.0063 20.2486C11.7221 20.7507 11.5123 21.266 11.3131 21.8928C11.7965 21.7308 14.0968 22.5463 14.0968 22.5463L21.5343 22.5649C21.5821 22.2886 21.5927 22.0203 21.5768 21.7574L21.9301 21.76L24.4748 21.8583C24.4748 21.8583 24.9927 20.8755 25.4682 20.663C25.532 20.6338 25.5506 20.5567 25.5054 20.5036C25.0963 20.0414 24.6076 19.4783 24.0524 19.1861C23.5716 18.9338 23.067 19.0188 22.804 18.4158C22.5277 17.7863 22.6234 17.1461 22.1187 16.6175C22.0762 16.5697 22.0284 16.5246 21.9779 16.4821Z" fill="url(#paint2_radial_57_268)"/>
<path d="M19.9087 15.1725C19.6218 15.0158 19.5102 14.7953 19.7174 14.6306C19.8104 14.5562 20.177 14.705 20.8517 14.8883C21.7229 15.1247 22.2435 15.2734 22.7934 15.2495C23.9063 15.2044 24.0657 14.2401 24.0657 14.2401C24.0657 14.2401 23.9302 13.8337 22.8943 13.762C22.4932 13.7355 21.776 13.5867 21.2023 13.422C20.671 13.2706 20.2274 12.9837 20.4931 12.7261C20.6524 12.572 20.9792 12.7155 21.3431 12.7792C22.1399 12.92 22.7907 13.0767 23.2927 13.09C24.3499 13.1192 24.7112 12.4498 24.7112 12.4498C24.7112 12.4498 24.5731 11.8283 23.7576 11.6264C23.322 11.5175 22.8438 11.4484 21.9699 11.2625C21.4626 11.1562 21.4945 10.9995 21.6459 10.8641C21.8504 10.6808 22.2701 10.7259 22.5277 10.7472C23.1493 10.803 23.9276 10.9889 24.3552 11.0155C25.0937 11.0606 25.4762 10.5081 25.4762 10.5081C25.4762 10.5081 25.4496 9.87859 24.7324 9.65281C24.0524 9.43765 23.8904 9.52796 23.3565 9.3314C23.0165 9.20656 22.897 9.06312 23.0324 8.94093C23.1573 8.82937 23.4256 8.82671 23.9435 8.86921C24.6368 8.92499 25.176 9.04718 25.702 9.09499C26.6077 9.17734 26.8681 8.60093 26.8681 8.60093C26.8681 8.60093 26.7857 8.10953 26.1429 7.91296C25.8348 7.81734 25.4974 7.78281 24.9688 7.62874C24.7563 7.56765 24.7218 7.45078 24.8095 7.31265C24.8971 7.17718 25.1388 7.14796 25.4788 7.18249C26.0685 7.24359 26.2784 7.29406 26.6927 7.35781C27.5162 7.48796 27.9279 7.12671 27.9279 7.12671C27.9279 7.12671 28.0262 6.63531 27.556 6.46796C27.1231 6.3139 26.8229 6.30062 26.5095 6.21828C26.196 6.13593 26.2332 6.00312 26.3368 5.92874C26.6927 5.67109 27.7606 6.07484 28.1271 6.11468C28.7513 6.18374 29.0913 5.81718 29.0913 5.81718C29.0913 5.81718 29.187 5.35765 28.7354 5.20093C28.3742 5.07609 28.0421 5.06281 28.2387 4.88218C28.3343 4.79453 28.6663 4.76531 28.839 4.77859C29.3649 4.81578 29.5668 4.87156 29.8192 4.80515C30.0556 4.74406 30.369 4.51562 30.5443 4.34296C30.1618 4.09062 29.7209 4.0189 29.2746 3.94984C28.7779 3.87281 28.499 4.43859 28.252 4.3589C28.1298 4.31906 28.4034 3.8914 28.1218 3.92062C27.9545 3.93921 27.5932 4.02687 27.4524 4.43062C27.3276 4.78656 27.3037 5.31249 26.9424 5.24078C26.7193 5.19828 26.8096 4.94593 26.8415 4.76796C26.9292 4.28984 26.722 4.21546 26.722 4.21546C26.722 4.21546 25.9809 4.20218 25.7312 4.98046C25.5984 5.39218 25.524 6.11203 25.184 6.1014C24.8945 6.09343 25.0087 5.7614 25.0034 5.47187C24.9954 5.00968 24.5677 4.9539 24.5677 4.9539C24.5677 4.9539 23.8585 5.09468 23.8187 5.69234C23.8027 5.92078 23.7921 6.35374 23.7921 6.86109C23.7921 7.29406 23.6832 7.63671 23.5185 7.71109C23.1998 7.85718 23.1892 7.44812 23.1626 7.02312C23.136 6.60078 23.1493 6.35906 23.0829 6.17578C22.9846 5.91015 22.4401 5.93406 22.4401 5.93406C22.4401 5.93406 21.8451 6.38296 21.869 6.87171C21.8876 7.25421 21.9487 7.82531 21.9885 8.05374C22.0576 8.45484 22.0523 8.99937 21.8159 9.21187C21.5848 9.41906 21.4201 8.77624 21.2448 7.81999C21.0881 6.95937 20.4293 7.06828 20.4293 7.06828C20.4293 7.06828 19.7998 7.54109 19.8981 8.28484C19.9698 8.83734 20.0893 9.23843 20.1902 9.56781C20.4399 10.3859 20.4798 10.6808 20.4027 10.8667C20.0946 11.6105 19.7174 10.3647 19.3827 9.34734C19.1517 8.64343 18.5301 8.72577 18.5301 8.72577C18.5301 8.72577 17.9829 9.24374 18.1051 9.8839C18.307 10.9491 18.6629 11.5494 18.894 11.9425C19.3243 12.6809 19.4146 13.0077 19.3349 13.2016C19.2473 13.4114 18.8462 13.1989 18.5327 12.6809C18.1981 12.1205 18.0493 11.7831 17.8102 11.0951C17.6057 10.5108 17.3746 10.5851 17.3746 10.5851C17.3746 10.5851 16.8673 11.3103 17.117 12.1231C17.6163 13.7434 18.6098 14.5403 18.7027 14.6306C18.9259 14.8431 18.6177 14.8591 18.1795 14.6545C17.7013 14.4314 17.0452 13.2175 17.0452 13.2175C17.0452 13.2175 16.846 13.8576 17.2232 14.6917C17.6615 15.6586 18.3176 15.7755 18.724 15.8764C19.1995 15.9959 19.3748 15.9216 19.6138 16.2137C20.6073 17.4409 22.0496 17.247 22.2913 17.247C23.4681 17.247 23.5982 16.4236 23.5982 16.4236C23.5982 16.4236 23.4229 16.0517 22.6526 15.9189C22.3471 15.8658 22.0257 15.8976 21.0376 15.6108C20.6976 15.5178 20.2354 15.3505 19.9087 15.1725Z" fill="#73B03E"/>
<path d="M15.8124 9.56246C15.8124 9.56246 15.1829 9.82278 15.0979 10.3328C14.9943 10.8507 14.973 12.3807 14.7021 12.9837C14.5241 13.3768 14.2107 13.1298 14.3329 12.4896C14.4896 11.6768 14.6782 10.6409 14.5533 9.78293C14.4497 9.07637 13.8494 8.63277 13.8494 8.63277C13.8494 8.63277 13.2465 8.71778 13.1827 9.08965C13.0765 9.71387 13.1083 10.2637 13.0712 10.6834C13.0446 10.9756 13.0472 11.4989 12.678 11.4006C12.4416 11.3395 12.508 10.6276 12.516 10.4125C12.5319 9.91043 12.6222 9.67403 12.6143 8.72043C12.6063 7.95278 11.7802 7.53309 11.7802 7.53309C11.7802 7.53309 11.3047 7.65793 11.2304 8.12543C11.1188 8.83731 11.1932 9.6209 10.7602 9.48543C10.4787 9.39777 10.6965 8.27152 10.6168 7.68184C10.5371 7.07621 9.99256 6.72027 9.99256 6.72027C9.99256 6.72027 9.47459 6.73356 9.43475 7.28074C9.40021 7.78012 9.47459 8.48668 9.02834 8.50262C8.5874 8.51856 8.81584 7.76418 8.68834 6.89559C8.59537 6.2634 7.89146 6.01637 7.89146 6.01637C7.89146 6.01637 7.33631 6.10402 7.34162 6.55027C7.34428 6.72027 7.3124 7.16652 7.0335 7.10809C6.78115 7.05496 6.6749 6.69371 6.61381 6.48652C6.53678 6.23152 6.47568 6.05887 6.27381 5.86496C6.04006 5.63918 5.37068 5.42934 5.34678 5.43996C5.30693 5.45856 5.2485 6.0084 5.33084 6.22621C5.45303 6.55559 5.67881 6.73356 5.87803 7.00184C6.13037 7.33918 5.73725 7.28074 5.46631 7.45074C5.1449 7.65262 5.06787 8.01653 5.06787 8.01653C5.06787 8.01653 5.43975 8.33262 5.81959 8.35918C6.18084 8.38574 6.51818 8.27418 6.84756 8.1759C7.27256 8.04574 7.68162 7.94481 7.81709 8.14402C8.02428 8.44418 7.31771 8.46278 6.81834 8.87184C6.50756 9.12684 6.47568 9.55715 6.47568 9.55715C6.47568 9.55715 7.25396 10.0672 7.64443 9.92903C8.40146 9.65809 8.66975 9.43231 9.03365 9.31543C9.45068 9.17996 9.91553 9.39512 9.43475 9.73246C9.08943 9.97684 8.66443 10.2132 8.38553 10.4948C8.04287 10.8375 8.07209 11.2917 8.07209 11.2917C8.07209 11.2917 8.63256 11.714 9.10006 11.6078C9.87037 11.4325 10.3485 11.0606 10.7576 10.8667C11.249 10.6356 11.4508 10.694 11.6182 10.8295C11.7988 10.9782 11.4535 11.127 11.0232 11.3475C10.5265 11.6025 9.97928 12.054 9.77475 12.2745C9.50912 12.5614 9.53568 13.5761 9.53568 13.5761C9.53568 13.5761 10.3697 13.8842 11.0657 13.5628C11.7988 13.2254 12.5691 12.4525 12.8958 12.5693C13.4005 12.7473 13.018 13.0315 12.2982 13.6106C11.751 14.0515 11.2755 14.3703 10.9329 14.7528C10.6115 15.1114 10.6301 16.0304 10.6301 16.0304C10.6301 16.0304 11.0497 16.2801 11.6713 16.227C12.4682 16.1606 13.4962 14.8059 13.8866 14.442C14.1416 14.2056 14.3807 14.519 13.9451 15.3265C13.273 16.575 12.9596 16.5696 12.6222 17.5286C12.3619 18.275 12.8002 18.9948 12.8002 18.9948C12.8002 18.9948 13.4882 19.1701 13.9557 18.8407C14.3276 18.5804 14.5958 18.0731 14.8641 17.3479C14.9279 17.1779 15.0554 16.7689 15.0421 15.7064C15.0341 14.9175 14.8907 15.1273 15.3024 14.4207C16.264 12.7712 16.5482 12.0248 16.4154 10.7764C16.3383 10.022 15.8124 9.56246 15.8124 9.56246Z" fill="#73B03E"/>
<path d="M19.7333 17.17C19.7333 17.17 18.3441 17.579 17.8819 17.9775C17.4197 18.3786 16.9044 19.0851 16.3519 19.2843C15.7994 19.4836 15.4116 19.4358 15.4116 19.4358C15.4116 19.4358 15.7304 18.1793 16.5857 17.5684C17.449 16.9495 18.7452 16.6812 19.7333 17.17Z" fill="#A1D65C"/>
<path d="M11.7646 20.424H24.8918V22.7349H11.7646V20.424Z" fill="url(#paint3_linear_57_268)"/>
<path d="M29.8352 28.1775C29.8963 27.9597 29.8644 27.6702 29.8724 27.2319C29.8777 26.9769 30.0265 26.9716 30.4594 27.4099C30.6507 27.6038 31.004 27.6357 31.004 27.6357C31.0465 26.8228 30.6958 26.5838 30.1354 26.2677C29.6413 25.9914 29.1605 25.8905 29.381 25.5824C29.4527 25.4814 29.7847 25.6435 29.9547 25.7099C30.9562 26.1057 31.0438 25.8002 31.0438 25.8002C31.0438 25.8002 30.9774 25.0246 29.9627 24.6686C29.474 24.4986 28.6426 24.3764 28.6532 24.1294C28.6638 23.8053 29.126 23.9275 29.3969 23.9939C30.7676 24.3233 30.8924 24.1135 30.8924 24.1135C30.8924 24.1135 30.6135 22.9899 29.3226 22.7667C28.6851 22.6578 27.5482 22.5569 27.4924 22.2541C27.434 21.9327 28.6718 22.116 29.1658 22.1957C29.8538 22.3072 30.053 22.1292 30.053 22.1292C30.053 22.1292 29.7555 21.08 28.2999 20.9552C27.2268 20.8649 26.5282 21.0083 26.3555 20.7374C26.2015 20.4903 27.1922 20.4292 28.1485 20.501C28.9002 20.5567 29.3066 20.5382 29.3066 20.5382C29.3066 20.5382 29.0197 19.473 27.4446 19.3641C25.8774 19.2552 24.4324 19.6696 24.613 19.3614C24.8043 19.0374 25.4338 18.9869 26.2307 18.9471C26.6371 18.9285 27.1391 18.9417 27.4047 18.9072C28.0263 18.8275 28.2176 18.5752 28.2176 18.5752C28.2176 18.5752 27.5588 17.9563 26.6026 17.7889C25.7605 17.6428 25.054 17.7597 24.0632 17.9935C23.5187 18.121 22.8652 18.3069 22.6819 18.1528C22.5624 18.0546 23.0272 17.7677 23.5213 17.6482C23.9304 17.5499 24.714 17.4755 25.2612 17.4303C25.6065 17.4038 25.8296 17.2896 25.8296 17.2896C25.8296 17.2896 25.6862 17.1727 25.4285 17.0425C24.9504 16.8008 24.1376 16.5857 23.3487 16.745C22.8732 16.8407 22.5146 16.9283 22.1374 17.2178C21.7496 17.5153 21.5291 17.7916 21.0563 17.7757C20.5835 17.7624 20.3126 17.5685 19.4626 17.8527C19.0933 17.9775 18.3496 18.5141 17.7626 19.1914C17.1516 19.898 17.2791 20.5567 17.2791 20.5567C17.2791 20.5567 17.9219 20.748 18.5701 20.3867C19.4812 19.8794 20.5702 18.4238 21.0351 18.4769C21.5902 18.5407 20.8226 19.0985 20.4613 19.4863C19.6458 20.3575 19.266 21.1332 19.1571 21.7866C19.0588 22.3789 19.2926 22.6658 19.2926 22.6658C19.2926 22.6658 20.124 22.5463 20.4799 22.0549C20.9952 21.3403 21.5451 20.6683 21.9037 20.1716C22.3446 19.5607 22.5996 19.3614 22.8227 19.2658C23.2583 19.0799 23.6063 19.2074 22.9768 19.9272C22.2251 20.7852 21.5822 21.7255 21.4149 22.3869C21.2529 23.0217 21.5663 23.561 21.5663 23.561C21.5663 23.561 22.3366 23.2927 22.6766 22.8571C23.3566 21.9832 23.5824 21.4811 23.949 20.9366C24.2358 20.5089 24.5679 20.1663 24.8919 20.2592C25.2399 20.3602 24.8787 20.7799 24.4483 21.4174C24.0818 21.9566 23.6674 22.7375 23.5532 23.3086C23.4018 24.0736 23.6329 24.4455 23.6329 24.4455C23.6329 24.4455 24.5572 24.2967 24.8308 23.8771C25.0672 23.5185 25.5082 22.6074 25.8163 22.1824C26.0713 21.8291 26.2971 21.3802 26.6105 21.5661C26.7752 21.6644 26.6132 22.0363 26.2652 22.6021C25.9969 23.0377 25.6915 23.6141 25.5454 24.0975C25.394 24.5969 25.6091 25.1494 25.6091 25.1494C25.6091 25.1494 26.3662 25.1839 26.6743 24.5969C26.9319 24.1082 27.1604 23.6938 27.3463 23.3963C27.7447 22.7614 27.9891 23.205 27.6916 23.7628C27.3755 24.3552 27.1551 24.751 27.001 25.3274C26.9054 25.686 27.0807 26.1667 27.0807 26.1667C27.0807 26.1667 27.5562 26.1986 27.8271 25.8533C28.3026 25.2477 28.2893 24.8067 28.5682 25.0564C28.7674 25.2371 28.3079 25.8719 28.0582 26.3341C27.8085 26.7989 27.9201 27.3355 27.9201 27.3355C27.9201 27.3355 28.5071 27.5427 28.7621 27.03C29.2243 26.1057 29.4394 26.4642 29.3146 26.8839C29.2747 27.0221 29.0862 27.6303 29.0463 27.7711C28.8258 28.5175 29.2376 28.8363 29.2376 28.8363C29.2376 28.8363 29.6918 28.6822 29.8352 28.1775Z" fill="#A1D65C"/>
<path d="M5.91816 28.9691C5.84379 28.823 5.67645 28.491 5.92613 28.3608C6.21035 28.2094 6.3166 28.6743 6.57691 28.9478C7.02051 29.41 7.41895 29.1975 7.41895 29.1975C7.41895 29.1975 7.71645 28.7725 7.46676 28.1669C7.22504 27.5825 6.70441 27.1761 6.91426 26.8999C7.03113 26.7458 7.36848 26.6289 7.8227 27.4922C8.24238 28.2891 8.9091 28.1403 8.9091 28.1403C8.9091 28.1403 9.37129 27.5746 9.03926 26.7139C8.80816 26.1189 8.32738 25.601 8.43098 25.3114C8.55582 24.9608 8.86395 24.9741 9.1641 25.4947C9.3527 25.8188 9.54129 26.2172 9.78035 26.536C10.2425 27.1575 10.9013 27.1097 10.9013 27.1097C10.9013 27.1097 11.2439 26.5253 10.9757 25.6727C10.8402 25.2424 10.6994 24.8971 10.3833 24.2914C10.2266 23.9939 9.9477 23.5849 10.1602 23.3378C10.3647 23.1014 10.6596 23.3989 10.9013 23.7628C11.4777 24.6314 11.4989 24.8864 11.7911 25.3486C12.2188 26.0207 13.1379 25.9941 13.1379 25.9941C13.1379 25.9941 13.4858 25.3114 13.3504 24.6341C13.183 23.8107 12.9838 23.221 12.5083 22.4746C12.2958 22.1425 12.0541 21.7149 12.248 21.5847C12.4339 21.4625 12.7208 21.5927 13.0635 22.1133C13.5283 22.8172 13.8896 23.5025 14.2136 24.0869C14.5935 24.7722 15.5205 24.8838 15.5205 24.8838C15.5205 24.8838 15.8924 24.488 15.5657 23.2768C15.316 22.3524 14.9707 21.7707 14.7449 21.3536C14.466 20.8436 13.9799 20.5036 14.2907 20.3628C14.5775 20.2327 14.9547 20.57 15.3664 21.2155C15.7914 21.8822 15.8977 22.3896 16.3944 23.0775C16.8008 23.6433 17.7544 23.5557 17.7544 23.5557C17.7544 23.5557 17.8872 23.0138 17.7836 22.4852C17.6774 21.9353 17.34 21.3005 16.8088 20.6922C15.6214 19.3322 14.8644 19.8953 14.79 19.6403C14.7555 19.5208 14.8219 19.1543 14.5297 18.6496C14.11 17.9271 13.0847 17.2471 11.9266 17.2577C11.4618 17.263 10.6304 17.4064 10.2585 17.6668C10.2585 17.6668 10.301 18.0732 10.803 18.2936C11.3954 18.5566 12.5827 18.7877 13.0874 19.2552C13.4221 19.5633 13.6319 19.9246 13.2733 19.7785C13.1246 19.7174 12.6172 19.3588 12.086 19.1702C11.5308 18.9736 10.9704 18.8886 10.3036 18.8674C9.30754 18.8355 8.53191 19.2499 8.53191 19.2499C8.53191 19.2499 8.58504 19.5049 9.17207 19.805C9.52535 19.9857 10.6171 20.1477 11.0341 20.3522C11.3768 20.5196 11.6822 20.6391 11.4883 20.833C11.3661 20.9552 11.1749 20.9153 11.0155 20.8543C10.2771 20.5674 9.14551 20.4213 8.54254 20.3974C7.70582 20.3655 7.10551 20.9153 7.10551 20.9153C7.10551 20.9153 7.1002 21.3696 7.70848 21.5741C8.59035 21.8689 9.89457 21.8158 10.1921 22.1505C10.4816 22.4799 9.7591 22.533 9.08973 22.4082C8.36457 22.27 7.99004 22.2275 6.7177 22.4188C5.85707 22.5463 5.42145 23.1413 5.42145 23.1413C5.42145 23.1413 5.65254 23.6513 6.11738 23.6964C7.04441 23.7894 8.9941 23.6221 8.85067 24.0019C8.72051 24.3446 8.3141 24.318 7.89707 24.2888C7.13738 24.2383 6.4627 24.2011 5.73754 24.3711C4.86629 24.5757 4.56082 25.2982 4.56082 25.2982C4.56082 25.2982 4.77863 25.6727 5.29395 25.6807C6.23957 25.6966 7.41629 25.3699 7.65535 25.585C7.9927 25.8905 7.22504 26.0047 6.81598 26.0233C6.30332 26.0472 5.36301 26.1163 4.83973 26.3739C4.14645 26.7139 4.08004 27.2505 4.08004 27.2505C4.08004 27.2505 4.23145 27.5268 4.94066 27.4736C5.12926 27.4603 5.82254 27.2372 6.09082 27.2877C6.51582 27.37 6.15191 27.6277 5.68176 27.7499C5.54363 27.7844 4.95395 27.9199 4.69629 28.0607C4.42801 28.2068 3.99504 28.3528 3.89941 29.1763C3.89941 29.1763 4.18895 29.3011 4.72816 29.1364C4.98051 29.0594 5.20363 28.8841 5.33379 29.0116C5.46129 29.1391 5.15848 29.511 5.12395 29.8935C5.04957 30.6771 5.50645 31.0171 5.50645 31.0171C5.50645 31.0171 6.02441 30.6903 6.11207 30.0661C6.19707 29.4047 5.9766 29.086 5.91816 28.9691Z" fill="#A1D65C"/>
<defs>
<linearGradient id="paint0_linear_57_268" x1="17.4697" y1="15.7318" x2="17.666" y2="6.87777" gradientUnits="userSpaceOnUse">
<stop offset="0.365" stop-color="#1B5E20"/>
<stop offset="0.95" stop-color="#2E7D32"/>
</linearGradient>
<radialGradient id="paint1_radial_57_268" cx="0" cy="0" r="1" gradientUnits="userSpaceOnUse" gradientTransform="translate(22.7026 18.9529) scale(7.35356)">
<stop offset="0.209" stop-color="#1B5E20"/>
<stop offset="0.74" stop-color="#2E7D32"/>
</radialGradient>
<radialGradient id="paint2_radial_57_268" cx="0" cy="0" r="1" gradientUnits="userSpaceOnUse" gradientTransform="translate(16.8303 21.4264) scale(8.90747 8.90747)">
<stop offset="0.209" stop-color="#1B5E20"/>
<stop offset="0.74" stop-color="#2E7D32"/>
</radialGradient>
<linearGradient id="paint3_linear_57_268" x1="18.3277" y1="22.2897" x2="18.3277" y2="20.399" gradientUnits="userSpaceOnUse">
<stop stop-color="#5D4037"/>
<stop offset="1" stop-color="#5D4037" stop-opacity="0"/>
</linearGradient>
</defs>
</svg>
