<svg width="50" height="50" viewBox="0 0 50 50" fill="none" xmlns="http://www.w3.org/2000/svg">
<g clip-path="url(#clip0_57_76)">
<path d="M24.0769 14.5198L21.9462 10.7422C18.3949 4.446 11.1747 1.1752 4.0997 2.65782L3.06884 2.87383C2.73916 2.94287 2.71533 3.40459 3.03623 3.50723L3.49853 3.65508C9.63564 5.61758 14.9488 9.55967 18.6064 14.8643L24.0769 22.798V14.5198Z" fill="#5EA570"/>
<path d="M25.9229 14.5198L28.0536 10.7422C31.6049 4.446 38.8251 1.1752 45.9001 2.65782L46.931 2.87383C47.2606 2.94287 47.2845 3.40459 46.9636 3.50723L46.5013 3.65508C40.3642 5.61758 35.051 9.55967 31.3934 14.8643L25.9229 22.798V14.5198Z" fill="#5EA570"/>
<path d="M22.0815 23.6202L19.977 19.2457C16.4694 11.9546 8.85225 8.50562 2.68204 10.5673L1.60538 10.9271C1.31173 11.0253 1.30509 11.4381 1.59532 11.5457L2.20841 11.7728C7.75011 13.8262 12.6785 18.2564 16.2223 24.37L21.5225 33.5138L22.0815 23.6202Z" fill="#5EA570"/>
<path d="M24.1176 18.7267L21.1932 16.2379C16.319 12.0898 8.69468 14.2843 3.26773 17.6771L2.59771 18.096C2.31207 18.2745 2.44898 18.7161 2.7855 18.7017L3.07261 18.6895C8.77232 18.4463 15.0168 17.3922 19.6764 20.6836L26.6458 25.6064L24.1176 18.7267Z" fill="#69AF81"/>
<path d="M27.9185 23.6202L30.0229 19.2457C33.5305 11.9546 41.1477 8.50562 47.3179 10.5673L48.3945 10.9271C48.6882 11.0253 48.6948 11.4381 48.4046 11.5457L47.7914 11.7728C42.2497 13.8262 37.3213 18.2564 33.7775 24.37L28.4773 33.5138L27.9185 23.6202Z" fill="#5EA570"/>
<path d="M25.8821 18.8309L28.8065 16.3421C33.6807 12.194 41.305 14.3885 46.732 17.7813L47.402 18.2002C47.6877 18.3787 47.5508 18.8203 47.2143 18.806L46.9271 18.7937C41.2274 18.5505 34.983 17.4964 30.3233 20.7878L23.354 25.7106L25.8821 18.8309Z" fill="#69AF81"/>
<path d="M24.6756 0.277222C23.0726 10.4853 21.9595 19.9325 22.291 27.1361H27.7087C28.0402 19.9324 26.9271 10.4852 25.3241 0.277222C25.266 -0.0924072 24.7336 -0.0924072 24.6756 0.277222Z" fill="#69AF81"/>
<path d="M17.1903 30.4461L12.9011 29.5113L10.6289 23.054C10.5077 22.7097 10.5824 22.3268 10.8241 22.0533C11.0658 21.7797 11.4365 21.6583 11.7932 21.7361L14.3191 22.2867L17.1903 30.4461Z" fill="#78C2A4"/>
<path d="M32.8096 30.4461L37.0988 29.5113L39.371 23.054C39.4922 22.7097 39.4175 22.3268 39.1758 22.0533C38.9341 21.7797 38.5634 21.6583 38.2067 21.7361L35.6808 22.2867L32.8096 30.4461Z" fill="#78C2A4"/>
<path d="M9.45945 21.5638C7.41893 22.4015 0.623614 25.9098 0.974005 35.3788C0.984161 35.6544 1.36092 35.7253 1.47176 35.4727C2.63494 32.8226 6.34217 25.8374 14.3195 22.2866L10.5627 21.4678C10.1933 21.3873 9.80906 21.4202 9.45945 21.5638Z" fill="#95D6A4"/>
<path d="M40.5407 21.5638C42.5813 22.4015 49.3766 25.9098 49.0262 35.3788C49.016 35.6544 48.6392 35.7253 48.5284 35.4727C47.3652 32.8226 43.658 25.8374 35.6807 22.2866L39.4375 21.4678C39.8068 21.3873 40.1911 21.4202 40.5407 21.5638Z" fill="#95D6A4"/>
<path d="M14.7762 46.7632C8.7451 42.2987 7.18055 36.8331 8.68602 29.2999C8.93729 28.0424 10.0414 27.1362 11.3238 27.1362H38.676C39.9584 27.1362 41.0625 28.0424 41.3138 29.2999C42.8192 36.8332 41.2546 42.2987 35.2236 46.7632L33.2936 48.9419L17.1906 48.3748L14.7762 46.7632Z" fill="#C6865C"/>
<path d="M38.6762 27.1361H37.8836C40.1427 35.8044 38.8877 41.8821 32.2939 46.7631H35.2238C41.2549 42.2986 42.8194 36.8331 41.314 29.2998C41.0627 28.0423 39.9586 27.1361 38.6762 27.1361Z" fill="#C17D4F"/>
<path d="M25.8495 27.1361H21.4595L18.4822 23.1124C18.256 22.8067 18.2213 22.3998 18.3924 22.0602C18.5635 21.7207 18.9114 21.5065 19.2915 21.5065H21.6838L25.8495 27.1361Z" fill="#78C2A4"/>
<path d="M24.1504 27.1361H28.5403L31.5177 23.1124C31.7439 22.8067 31.7785 22.3998 31.6074 22.0602C31.4363 21.7207 31.0885 21.5065 30.7083 21.5065H28.316L24.1504 27.1361Z" fill="#78C2A4"/>
<path d="M17.8387 21.5065C17.4607 21.5065 17.0923 21.6206 16.7812 21.8352C14.9659 23.0883 9.07363 27.9634 11.4325 37.1405C11.5012 37.4076 11.8843 37.3967 11.9389 37.1264C12.5109 34.2893 14.6456 26.6748 21.6838 21.5066H17.8387V21.5065Z" fill="#95D6A4"/>
<path d="M32.161 21.5065C32.539 21.5065 32.9074 21.6206 33.2185 21.8352C35.0338 23.0883 40.9261 27.9634 38.5672 37.1405C38.4985 37.4076 38.1154 37.3967 38.0608 37.1264C37.4888 34.2893 35.3541 26.6748 28.3159 21.5066H32.161V21.5065Z" fill="#95D6A4"/>
<path d="M10.6436 47.9773C10.5685 47.794 10.5061 47.6016 10.4568 47.4009C10.3754 47.0697 10.6268 46.7494 10.9678 46.7494H39.0331C39.3741 46.7494 39.6255 47.0697 39.544 47.4009C39.4946 47.6016 39.4324 47.794 39.3573 47.9773C38.8497 49.2156 37.6148 50 36.2766 50H13.7242C12.3859 50 11.1511 49.2156 10.6436 47.9773Z" fill="#9D6B6B"/>
<path d="M39.033 46.7494H36.5641C36.9051 46.7494 37.1564 47.0697 37.075 47.4009C37.0256 47.6016 36.9634 47.794 36.8883 47.9773C36.3807 49.2156 35.1458 50 33.8076 50H36.2766C37.6147 50 38.8496 49.2156 39.3572 47.9773C39.4324 47.794 39.4946 47.6016 39.544 47.4009C39.6253 47.0697 39.3739 46.7494 39.033 46.7494Z" fill="#8B5E5E"/>
</g>
<defs>
<clipPath id="clip0_57_76">
<rect width="50" height="50" fill="white"/>
</clipPath>
</defs>
</svg>
