<svg width="50" height="50" viewBox="0 0 50 50" fill="none" xmlns="http://www.w3.org/2000/svg">
<path d="M25.6551 0.327539L24.9999 0L24.3447 0.327539C17.9918 3.504 13.668 9.25986 12.3125 16.029L24.9999 16.0085L37.6787 15.9881C36.3138 9.23652 31.9951 3.49756 25.6551 0.327539Z" fill="#CFD7E6"/>
<path d="M25.6552 0.327539L25 0V16.0085L37.6788 15.9881C36.3139 9.23652 31.9952 3.49756 25.6552 0.327539Z" fill="#A3B1CC"/>
<path d="M37.6788 15.9882C34.6697 12.4318 30.6534 9.38374 25.6552 6.8855L25 6.55786L24.3448 6.8854C19.3441 9.38433 15.3231 12.4457 12.3126 16.0291C12.0193 17.4939 11.8164 18.9868 11.8164 20.5239V26.4649H25H38.1836V20.524C38.1836 18.9726 37.9776 17.4658 37.6788 15.9882Z" fill="#E7EAF2"/>
<path d="M38.1836 20.524C38.1836 18.9726 37.9776 17.4657 37.6788 15.9881C34.6697 12.4317 30.6534 9.38364 25.6552 6.8854L25 6.55786V26.4649H38.1836V20.524Z" fill="#CFD7E6"/>
<path d="M25 14.7461C23.1375 16.6086 22.0703 19.1864 22.0703 21.8186V29.3945L23.6893 30.8594H25H26.0022L27.9297 29.3945V21.8186C27.9297 19.1864 26.8625 16.6086 25 14.7461Z" fill="#CFD7E6"/>
<path d="M27.9297 29.3945V21.8186C27.9297 19.1864 26.8625 16.6086 25 14.7461V30.8594H26.0022L27.9297 29.3945Z" fill="#A3B1CC"/>
<path d="M25 29.3945H22.0703V42.6758H25H27.9297V29.3945H25Z" fill="#805640"/>
<path d="M25 29.3945H27.9297V42.6758H25V29.3945Z" fill="#664333"/>
<path d="M25 41.2109H17.6758V42.6758C17.6758 46.7142 20.9616 50 25 50C29.0384 50 32.3242 46.7142 32.3242 42.6758V41.2109H25ZM25 47.0703C23.0902 47.0703 21.4609 45.8448 20.8558 44.1396H25H29.1442C28.5391 45.8448 26.9098 47.0703 25 47.0703Z" fill="#FF7F40"/>
<path d="M32.3242 42.6758V41.2109H25V44.1396H29.1442C28.5391 45.8448 26.9098 47.0703 25 47.0703V50C29.0384 50 32.3242 46.7142 32.3242 42.6758Z" fill="#F25A3C"/>
</svg>
