<svg width="50" height="50" viewBox="0 0 50 50" fill="none" xmlns="http://www.w3.org/2000/svg">
<g clip-path="url(#clip0_57_101)">
<path d="M50 20.5116H41.4226C35.4216 20.5116 29.8884 23.4389 26.4636 28.3276V42.6621H23.5362V37.1098C20.1114 32.2211 14.5782 29.2937 8.57725 29.2937H0C0.205112 29.0011 1.9029 20.5116 10.3631 20.5116C15.7786 20.5116 20.2284 24.7563 20.5796 30.0842C21.6335 30.8161 22.6287 31.6356 23.5363 32.5431V19.0479C23.5363 15.0081 20.2576 11.7294 16.2178 11.7294H8.89936V10.2657C8.89936 6.2259 12.178 2.94723 16.2178 2.94723C20.2576 2.94723 23.5363 6.2259 23.5363 10.2657C23.5363 10.7633 23.4777 11.2611 23.3898 11.7294C23.6829 12.022 23.917 12.3442 24.1803 12.6662C24.4147 12.0513 24.6781 11.4658 25.0001 10.9096C25.4393 10.1487 25.9957 9.41685 26.6103 8.802C26.5223 8.33372 26.4638 7.83587 26.4638 7.33831C26.4638 3.29851 29.7425 0.0198364 33.7823 0.0198364C37.8221 0.0198364 41.1007 3.29851 41.1007 7.33831V8.802H33.7823C29.7425 8.802 26.4638 12.0807 26.4638 16.1205V23.761C27.3715 22.8535 28.3667 22.0339 29.4205 21.3021C29.8303 15.8863 34.2504 11.7294 39.637 11.7294C48.1265 11.7294 49.7656 20.1603 50 20.5116Z" fill="#97DE3D"/>
<path d="M50.0001 20.5114H41.4227C35.4217 20.5114 29.8885 23.4388 26.4637 28.3274V42.662H25V10.9094C25.4392 10.1485 25.9956 9.41667 26.6102 8.80182C26.5222 8.33354 26.4637 7.83568 26.4637 7.33813C26.4637 3.29833 29.7424 0.0196533 33.7822 0.0196533C37.822 0.0196533 41.1006 3.29833 41.1006 7.33813V8.80182H33.7822C29.7424 8.80182 26.4637 12.0805 26.4637 16.1203V23.7608C27.3714 22.8533 28.3666 22.0337 29.4204 21.3019C29.8302 15.8861 34.2503 11.7292 39.6369 11.7292C48.1266 11.7292 49.7657 20.1601 50.0001 20.5114Z" fill="#59C36A"/>
<path d="M42.5642 47.053C38.6162 47.053 36.7522 45.8109 34.5939 44.3715C32.364 42.8835 29.834 41.1982 24.9998 41.1982C20.1657 41.1982 17.6356 42.8835 15.4058 44.3715C13.2475 45.8109 11.3835 47.053 7.43552 47.053H3.04443V49.9804H46.9553V47.053H42.5642Z" fill="#704C55"/>
<path d="M46.9554 49.9804V47.053H42.5643C38.6164 47.053 36.7524 45.8109 34.594 44.3715C32.3641 42.8835 29.8342 41.1982 25 41.1982V49.9804C25.5181 49.9804 47.9142 49.9804 46.9554 49.9804Z" fill="#5A344B"/>
</g>
<defs>
<clipPath id="clip0_57_101">
<rect width="50" height="50" fill="white"/>
</clipPath>
</defs>
</svg>
